# xmcd
#
# Track frame offsets:
#	150
#	19850
#	42087
#	59775
#	83272
#	101560
#	120350
#	139937
#	153887
#	184565
#	202820
#	219997
#	242390
#	267717
#
# Disc length: 3818 seconds
#
# Revision: 2
# Processed by: cddbd v1.5.2PL0 Copyright (c) Steve Scherf et al.
# Submitted via: audiograbber 1.83.01
#
DISCID=b20ee80e
DTITLE=Various Artist - SummerJamz Music Sampler
DYEAR=1900
DGENRE=
TTITLE0=Mya - We're Gonna Make Ya Dance
TTITLE1=Chico DeBarge - Love Still Good
TTITLE2=K-Ci and JoJo - Love Ballad
TTITLE3=Angel Grant - Hey You
TTITLE4=Eboni Foster - Crazy For You
TTITLE5=George Benson - Standing Together
TTITLE6=Keith Washington - I Don't Mind
TTITLE7=Regina Belle - Don't Let Go
TTITLE8=God's Property - You Are The One
TTITLE9=Black Eyed Peas - Que Dices (Clean Edit)
TTITLE10=Cosmic Slop Shop - Sinfull
TTITLE11=Witchdoctor ft Goodie Mob - Smooth
TTITLE12=Michael Brecker - Delta City Blues
TTITLE13=Ramsey Lewis - Fragile
EXTD=
EXTT0=
EXTT1=
EXTT2=
EXTT3=
EXTT4=
EXTT5=
EXTT6=
EXTT7=
EXTT8=
EXTT9=
EXTT10=
EXTT11=
EXTT12=
EXTT13=
PLAYORDER=
